<?xml version="1.0" encoding="UTF-8" standalone="no"?>
<svg
   xmlns:dc="http://purl.org/dc/elements/1.1/"
   xmlns:cc="http://creativecommons.org/ns#"
   xmlns:rdf="http://www.w3.org/1999/02/22-rdf-syntax-ns#"
   xmlns:svg="http://www.w3.org/2000/svg"
   xmlns="http://www.w3.org/2000/svg"
   xmlns:sodipodi="http://sodipodi.sourceforge.net/DTD/sodipodi-0.dtd"
   xmlns:inkscape="http://www.inkscape.org/namespaces/inkscape"
   version="1.2"
   width="100mm"
   height="50mm"
   viewBox="0 0 100 50"
   stroke="none"
   fill="#000000"
   stroke-width="0.3"
   font-size="3.88"
   id="svg3097"
   inkscape:version="0.48.5 r10040"
   sodipodi:docname="jumperlogo.svg">
  <metadata
     id="metadata3169">
    <rdf:RDF>
      <cc:Work
         rdf:about="">
        <dc:format>image/svg+xml</dc:format>
        <dc:type
           rdf:resource="http://purl.org/dc/dcmitype/StillImage" />
        <dc:title></dc:title>
      </cc:Work>
    </rdf:RDF>
  </metadata>
  <defs
     id="defs3167" />
  <sodipodi:namedview
     pagecolor="#ffffff"
     bordercolor="#666666"
     borderopacity="1"
     objecttolerance="10"
     gridtolerance="10"
     guidetolerance="10"
     inkscape:pageopacity="0"
     inkscape:pageshadow="2"
     inkscape:window-width="771"
     inkscape:window-height="480"
     id="namedview3165"
     showgrid="false"
     inkscape:zoom="1.0301111"
     inkscape:cx="240.75074"
     inkscape:cy="88.58268"
     inkscape:window-x="0"
     inkscape:window-y="0"
     inkscape:window-maximized="0"
     inkscape:current-layer="text3100" />
  <g
     font-size="21.17"
     font-family="Sinhala MN"
     id="fig-f54162229e2743358a96b1c862b759e6-element-1">
    <g
       style=""
       id="text3100">
      <path
         d="m 39.139348,22.116001 c -6e-6,0.36524 -0.03446,0.727032 -0.10337,1.085376 -0.06203,0.351456 -0.196406,0.668455 -0.403139,0.950996 -0.199852,0.282543 -0.489286,0.5134 -0.868301,0.692573 -0.372133,0.172282 -0.868304,0.258423 -1.488516,0.258423 -0.351457,0 -0.668456,-0.03446 -0.950996,-0.103369 -0.275653,-0.06202 -0.527184,-0.144717 -0.754594,-0.248086 -0.227414,-0.103369 -0.434152,-0.22052 -0.620215,-0.351455 -0.186065,-0.130934 -0.358347,-0.265313 -0.516846,-0.40314 l 0.53752,-0.713247 c 0.110259,0.08959 0.244639,0.203294 0.403139,0.341118 0.158498,0.130936 0.327334,0.26187 0.506509,0.392803 0.186063,0.124044 0.379018,0.230859 0.578867,0.320444 0.206736,0.08959 0.410029,0.134381 0.609878,0.13438 0.441039,1e-6 0.778711,-0.117151 1.013018,-0.351455 0.24119,-0.234302 0.361788,-0.547855 0.361792,-0.940659 l 0,-8.259194 1.695254,0 0,7.194492"
         style=""
         id="path3172" />
      <path
         d="m 42.726257,17.226641 0,5.530249 c -3e-6,0.192957 0.04479,0.375576 0.13438,0.547856 0.08958,0.172284 0.210181,0.323891 0.361792,0.454824 0.158496,0.124044 0.341115,0.223968 0.547856,0.299771 0.206735,0.06891 0.427255,0.10337 0.661563,0.103369 0.151603,1e-6 0.313548,-0.03101 0.485835,-0.09303 0.179168,-0.06891 0.35145,-0.158499 0.516845,-0.26876 0.165386,-0.11715 0.320439,-0.25153 0.465161,-0.40314 0.151603,-0.158497 0.275646,-0.323888 0.372129,-0.496172 l 0,-5.674965 1.540201,0 0,7.773359 -1.540201,0 0,-1.457505 c -0.137831,0.220522 -0.310113,0.430706 -0.516845,0.630552 -0.199853,0.192956 -0.420373,0.365238 -0.661563,0.516846 -0.241199,0.144717 -0.489285,0.258422 -0.744258,0.341118 -0.248089,0.08959 -0.485838,0.134379 -0.713247,0.13438 -0.337675,-1e-6 -0.658119,-0.06202 -0.961333,-0.186065 C 42.378245,24.848392 42.119823,24.67611 41.899304,24.46248 41.678781,24.24196 41.503054,23.986983 41.372121,23.697549 41.241186,23.401226 41.175719,23.087673 41.17572,22.75689 l 0,-5.530249 1.550537,0"
         style=""
         id="path3174" />
      <path
         d="m 49.972434,14.921509 1.736602,0 3.91769,7.732011 0.0827,0 3.845332,-7.732011 1.705591,0 0,10.078491 -1.705591,0 0,-8.259194 -0.05168,0 L 55.368303,25 l -0.351455,0 -4.176113,-8.197173 -0.113706,0 0,8.197173 -0.754595,0 0,-10.078491"
         style=""
         id="path3176" />
      <path
         d="m 63.78255,14.921509 3.194106,0 c 0.523732,10e-6 1.016458,0.06548 1.478179,0.196401 0.461709,0.124053 0.861403,0.310117 1.199082,0.558193 0.344556,0.241204 0.613316,0.540974 0.806279,0.899312 0.199839,0.358354 0.299763,0.768385 0.299771,1.230093 -8e-6,0.454831 -0.09649,0.854524 -0.289434,1.199082 -0.186072,0.337678 -0.434158,0.616774 -0.744258,0.83729 -0.310114,0.220526 -0.665014,0.385916 -1.064702,0.496172 -0.392808,0.110265 -0.795948,0.165395 -1.209419,0.16539 -0.179178,5e-6 -0.365242,-0.0034 -0.558193,-0.01034 -0.186069,-0.01378 -0.368687,-0.02756 -0.547857,-0.04135 -0.179176,-0.01378 -0.344567,-0.03101 -0.496171,-0.05169 -0.151612,-0.02067 -0.275655,-0.04134 -0.372129,-0.06202 l 0,4.661948 -1.695254,0 0,-10.078491 m 1.695254,4.848012 c 0.192952,0.05514 0.39969,0.10682 0.620215,0.155054 0.220517,0.04824 0.441037,0.07236 0.661562,0.07236 0.365233,5e-6 0.682231,-0.05513 0.950996,-0.165391 0.275646,-0.110255 0.503058,-0.258417 0.682236,-0.444487 0.186059,-0.19295 0.323884,-0.416917 0.413477,-0.6719 0.08958,-0.25497 0.134373,-0.527176 0.13438,-0.816616 -7e-6,-0.337665 -0.05858,-0.644327 -0.175728,-0.919985 -0.117157,-0.275643 -0.279102,-0.509946 -0.485835,-0.702911 -0.199852,-0.192946 -0.437601,-0.341109 -0.713247,-0.444487 -0.275656,-0.110251 -0.57198,-0.165381 -0.888974,-0.16539 l -1.199082,0 0,4.103754"
         style=""
         id="path3178" />
      <path
         d="m 75.142818,25.165391 c -0.52374,-1e-6 -1.016466,-0.09648 -1.478178,-0.289434 -0.461718,-0.199847 -0.868303,-0.468606 -1.219756,-0.806279 -0.344565,-0.344563 -0.616771,-0.744256 -0.816616,-1.199082 -0.199848,-0.461713 -0.299772,-0.950993 -0.299771,-1.467842 -10e-7,-0.620211 0.08959,-1.195632 0.26876,-1.726265 0.186063,-0.530622 0.444486,-0.988892 0.775268,-1.374809 0.337671,-0.385905 0.74081,-0.685675 1.209419,-0.899312 0.468604,-0.220513 0.99234,-0.330773 1.571211,-0.330781 0.50995,8e-6 0.97511,0.08959 1.395484,0.26876 0.427253,0.17918 0.79249,0.420375 1.095713,0.723584 0.3101,0.303222 0.547849,0.651232 0.713247,1.044028 0.172274,0.392808 0.258415,0.806284 0.258422,1.24043 l -5.799008,0 c -2e-6,0.523741 0.06547,1.009575 0.196401,1.457505 0.137823,0.441044 0.327333,0.823509 0.56853,1.147397 0.248083,0.323892 0.537516,0.578869 0.868301,0.764932 0.337669,0.179174 0.706352,0.26876 1.10605,0.268759 0.337667,10e-7 0.658111,-0.05168 0.961333,-0.155053 0.310101,-0.110259 0.589198,-0.254976 0.83729,-0.434151 0.25497,-0.179171 0.4686,-0.382464 0.640889,-0.609878 0.179165,-0.227409 0.306654,-0.461712 0.382465,-0.70291 l 0.444488,0.196402 c -0.110269,0.399696 -0.289442,0.77527 -0.53752,1.126723 -0.248093,0.344565 -0.537526,0.647781 -0.868301,0.909649 -0.330787,0.261869 -0.692579,0.468607 -1.085376,0.620215 -0.392807,0.151607 -0.789055,0.227411 -1.188745,0.227412 m 1.540201,-5.437217 c -6e-6,-0.296319 -0.05169,-0.568525 -0.155054,-0.816616 -0.103375,-0.254971 -0.248092,-0.475492 -0.434151,-0.661563 -0.179178,-0.186057 -0.392807,-0.330774 -0.640888,-0.43415 -0.241199,-0.110253 -0.499622,-0.165384 -0.775269,-0.165391 -0.234307,7e-6 -0.458273,0.05169 -0.671899,0.155054 -0.213633,0.103376 -0.403143,0.248093 -0.568531,0.43415 -0.165393,0.186071 -0.303218,0.406592 -0.413476,0.661563 -0.110263,0.248091 -0.17573,0.520297 -0.196401,0.816616 l 3.855669,0.01034"
         style=""
         id="path3180" />
      <path
         d="m 80.652392,14.921509 3.493877,0 c 0.606427,10e-6 1.137055,0.06548 1.591885,0.196401 0.454817,0.130944 0.833837,0.313563 1.137061,0.547857 0.303208,0.227421 0.53062,0.503072 0.682236,0.826953 0.158491,0.323898 0.237741,0.675353 0.237749,1.054365 -8e-6,0.317006 -0.05858,0.61333 -0.175728,0.888975 -0.117159,0.268766 -0.285996,0.513406 -0.506508,0.73392 -0.213637,0.220527 -0.47206,0.410037 -0.775269,0.568531 -0.303223,0.158504 -0.637449,0.282547 -1.002681,0.372129 L 89.004619,25 l -1.964014,0 -3.504214,-4.734307 -1.188745,0 0,4.734307 -1.695254,0 0,-10.078491 m 1.695254,4.837676 0.982007,0 c 0.379016,5e-6 0.730471,-0.04823 1.054365,-0.144717 0.323885,-0.103364 0.602981,-0.248081 0.83729,-0.434151 0.234298,-0.186058 0.416916,-0.410024 0.547857,-0.671899 0.130927,-0.268753 0.196395,-0.568523 0.196401,-0.899312 -6e-6,-0.303208 -0.05169,-0.578859 -0.155054,-0.826953 -0.103375,-0.254968 -0.251537,-0.472043 -0.444487,-0.651225 -0.18607,-0.186056 -0.410036,-0.327327 -0.671899,-0.423814 -0.261874,-0.10336 -0.547862,-0.155044 -0.857964,-0.155053 l -1.488516,0 0,4.207124"
         style=""
         id="path3182" />
    </g>
    <g
       stroke-width="0.05"
       stroke="#00008B"
       id="fig-f54162229e2743358a96b1c862b759e6-element-2">
      <path
         fill="none"
         d="M0,0 L 33.33 33.33 100 50"
         id="path3103" />
    </g>
    <g
       stroke-width="0.1"
       stroke="#090B90"
       id="fig-f54162229e2743358a96b1c862b759e6-element-3">
      <path
         fill="none"
         d="M0,2.5 L 33.33 33.33 100 51.35"
         id="path3106" />
    </g>
    <g
       stroke-width="0.15"
       stroke="#121795"
       id="fig-f54162229e2743358a96b1c862b759e6-element-4">
      <path
         fill="none"
         d="M0,4.76 L 33.33 33.33 100 52.78"
         id="path3109" />
    </g>
    <g
       stroke-width="0.2"
       stroke="#1B2299"
       id="fig-f54162229e2743358a96b1c862b759e6-element-5">
      <path
         fill="none"
         d="M0,6.82 L 33.33 33.33 100 54.29"
         id="path3112" />
    </g>
    <g
       stroke-width="0.25"
       stroke="#242D9E"
       id="fig-f54162229e2743358a96b1c862b759e6-element-6">
      <path
         fill="none"
         d="M0,8.7 L 33.33 33.33 100 55.88"
         id="path3115" />
    </g>
    <g
       stroke-width="0.3"
       stroke="#2E39A3"
       id="fig-f54162229e2743358a96b1c862b759e6-element-7">
      <path
         fill="none"
         d="M0,10.42 L 33.33 33.33 100 57.58"
         id="path3118" />
    </g>
    <g
       stroke-width="0.35"
       stroke="#3744A8"
       id="fig-f54162229e2743358a96b1c862b759e6-element-8">
      <path
         fill="none"
         d="M0,12 L 33.33 33.33 100 59.38"
         id="path3121" />
    </g>
    <g
       stroke-width="0.4"
       stroke="#4050AD"
       id="fig-f54162229e2743358a96b1c862b759e6-element-9">
      <path
         fill="none"
         d="M0,13.46 L 33.33 33.33 100 61.29"
         id="path3124" />
    </g>
    <g
       stroke-width="0.45"
       stroke="#495BB1"
       id="fig-f54162229e2743358a96b1c862b759e6-element-10">
      <path
         fill="none"
         d="M0,14.81 L 33.33 33.33 100 63.33"
         id="path3127" />
    </g>
    <g
       stroke-width="0.5"
       stroke="#5266B6"
       id="fig-f54162229e2743358a96b1c862b759e6-element-11">
      <path
         fill="none"
         d="M0,16.07 L 33.33 33.33 100 65.52"
         id="path3130" />
    </g>
    <g
       stroke-width="0.55"
       stroke="#5B72BB"
       id="fig-f54162229e2743358a96b1c862b759e6-element-12">
      <path
         fill="none"
         d="M0,17.24 L 33.33 33.33 100 67.86"
         id="path3133" />
    </g>
    <g
       stroke-width="0.6"
       stroke="#647DC0"
       id="fig-f54162229e2743358a96b1c862b759e6-element-13">
      <path
         fill="none"
         d="M0,18.33 L 33.33 33.33 100 70.37"
         id="path3136" />
    </g>
    <g
       stroke-width="0.65"
       stroke="#6D88C4"
       id="fig-f54162229e2743358a96b1c862b759e6-element-14">
      <path
         fill="none"
         d="M0,19.35 L 33.33 33.33 100 73.08"
         id="path3139" />
    </g>
    <g
       stroke-width="0.7"
       stroke="#7694C9"
       id="fig-f54162229e2743358a96b1c862b759e6-element-15">
      <path
         fill="none"
         d="M0,20.31 L 33.33 33.33 100 76"
         id="path3142" />
    </g>
    <g
       stroke-width="0.75"
       stroke="#7F9FCE"
       id="fig-f54162229e2743358a96b1c862b759e6-element-16">
      <path
         fill="none"
         d="M0,21.21 L 33.33 33.33 100 79.17"
         id="path3145" />
    </g>
    <g
       stroke-width="0.8"
       stroke="#89ABD3"
       id="fig-f54162229e2743358a96b1c862b759e6-element-17">
      <path
         fill="none"
         d="M0,22.06 L 33.33 33.33 100 82.61"
         id="path3148" />
    </g>
    <g
       stroke-width="0.85"
       stroke="#92B6D8"
       id="fig-f54162229e2743358a96b1c862b759e6-element-18">
      <path
         fill="none"
         d="M0,22.86 L 33.33 33.33 100 86.36"
         id="path3151" />
    </g>
    <g
       stroke-width="0.9"
       stroke="#9BC1DC"
       id="fig-f54162229e2743358a96b1c862b759e6-element-19">
      <path
         fill="none"
         d="M0,23.61 L 33.33 33.33 100 90.48"
         id="path3154" />
    </g>
    <g
       stroke-width="0.95"
       stroke="#A4CDE1"
       id="fig-f54162229e2743358a96b1c862b759e6-element-20">
      <path
         fill="none"
         d="M0,24.32 L 33.33 33.33 100 95"
         id="path3157" />
    </g>
    <g
       stroke-width="1"
       stroke="#ADD8E6"
       id="fig-f54162229e2743358a96b1c862b759e6-element-21">
      <path
         fill="none"
         d="M0,25 L 33.33 33.33 100 100"
         id="path3160" />
    </g>
    <g
       stroke-width="0.5"
       stroke="#000000"
       id="fig-f54162229e2743358a96b1c862b759e6-element-22">
      <path
         fill="none"
         d="M0,0 L 0 50 100 50 100 0 0 0"
         id="path3163" />
    </g>
  </g>
</svg>
